<svg width="16" height="16" viewBox="0 0 16 16" fill="none" xmlns="http://www.w3.org/2000/svg">
<path d="M8 0.25C3.71691 0.25 0.25 3.71622 0.25 8C0.25 12.2831 3.71622 15.75 8 15.75C9.50481 15.75 10.9794 15.3081 12.2315 14.493C12.6067 14.2488 12.6885 13.734 12.405 13.3877L12.087 12.9991C11.8472 12.7063 11.4251 12.6345 11.1066 12.8388C10.185 13.4299 9.10356 13.75 8 13.75C4.82944 13.75 2.25 11.1706 2.25 8C2.25 4.82944 4.82944 2.25 8 2.25C11.1293 2.25 13.75 4.05059 13.75 7.25C13.75 8.46206 13.0908 9.74194 11.9322 9.86541C11.39 9.85122 11.4038 9.46362 11.5111 8.92716L12.2433 5.14247C12.3329 4.67969 11.9784 4.25 11.507 4.25H10.1014C9.99759 4.25 9.89743 4.2882 9.82001 4.35733C9.7426 4.42645 9.69333 4.52166 9.68163 4.62478L9.68131 4.62766C9.22203 4.06825 8.41731 3.94719 7.80722 3.94719C5.47659 3.94719 3.5 5.892 3.5 8.68031C3.5 10.721 4.64953 11.9888 6.5 11.9888C7.34325 11.9888 8.29278 11.5001 8.84347 10.7908C9.14103 11.8566 10.1126 11.8566 11.0532 11.8566C14.4565 11.8566 15.75 9.61869 15.75 7.25C15.75 2.98916 12.3132 0.25 8 0.25ZM7.3225 9.76344C6.62722 9.76344 6.19531 9.27522 6.19531 8.48934C6.19531 7.08331 7.15716 6.21656 8.0275 6.21656C8.72412 6.21656 9.14003 6.69284 9.14003 7.49062C9.14003 8.89878 8.08144 9.76344 7.3225 9.76344Z" fill="#6A6A6A"/>
</svg>
