<svg width="770" height="703" viewBox="0 0 770 703" fill="none" xmlns="http://www.w3.org/2000/svg">
<path d="M578.139 77.4041C630.768 103.201 676.819 144.677 711.737 195.764C747.16 246.852 771.451 307.043 769.933 366.729C768.415 426.416 740.582 485.09 706.676 537.694C672.264 590.805 631.78 638.351 581.175 667.183C530.57 696.52 469.337 707.142 411.141 701.578C353.451 695.508 298.797 673.758 229.468 655.549C160.139 636.834 76.64 622.165 35.6497 574.619C-5.34056 527.578 -3.8224 447.66 5.28655 372.799C13.8895 297.939 29.5771 228.137 59.4342 161.369C88.7853 94.0959 132.306 29.3518 192.526 8.61342C253.253 -12.6308 330.679 10.1309 398.996 26.3169C466.807 42.5029 526.015 52.1134 578.139 77.4041Z" fill="#2D936C"/>
</svg>
