<svg width="500" height="462" viewBox="0 0 500 462" fill="none" xmlns="http://www.w3.org/2000/svg">
<path d="M348.826 40.2157C381.01 62.146 408.921 88.3485 437.117 120.247C465.313 151.861 493.51 189.171 498.921 229.614C504.617 270.057 487.244 313.918 459.048 345.247C430.567 376.576 391.263 395.373 353.383 413.886C315.504 432.398 279.333 450.341 238.89 457.746C198.447 465.151 153.732 462.018 120.694 440.658C87.6562 419.582 66.2955 380.278 46.9284 341.544C27.2766 302.81 9.61842 264.646 2.783 222.494C-3.76762 180.627 0.504529 134.772 23.5741 102.019C46.6436 69.5511 88.2258 50.184 128.099 32.5258C167.972 14.8676 205.567 -1.08169 242.592 0.0575447C279.903 0.911973 316.358 18.2853 348.826 40.2157Z" fill="#ACCBA1"/>
</svg>
