<svg width="500" height="457" viewBox="0 0 500 457" fill="none" xmlns="http://www.w3.org/2000/svg">
<path d="M375.415 50.2862C409.59 67.0451 439.493 93.9908 462.167 127.18C485.169 160.369 500.942 199.473 499.956 238.249C498.97 277.024 480.897 315.142 458.881 349.317C436.535 383.821 410.247 414.71 377.386 433.441C344.526 452.5 304.764 459.4 266.975 455.786C229.514 451.843 194.024 437.713 149.005 425.883C103.986 413.724 49.7663 404.195 23.1492 373.306C-3.4679 342.745 -2.48208 290.826 3.43282 242.192C9.01912 193.558 19.2059 148.211 38.5936 104.835C57.6528 61.1302 85.9129 19.0686 125.017 5.59577C164.45 -8.20567 214.726 6.58159 259.088 17.097C303.121 27.6124 341.568 33.8559 375.415 50.2862Z" fill="#E2824F"/>
</svg>
