<svg xmlns="http://www.w3.org/2000/svg" viewBox="0 0 64 64"><defs><style>.cls-1{fill:none;}.cls-2{isolation:isolate;}.cls-3{fill:#e2824f;}</style></defs><title>Risorsa 6</title><g id="Livello_2" data-name="Livello 2"><g id="Livello_1-2" data-name="Livello 1"><rect class="cls-1" width="64" height="64"/><g id="Livello_1-2-2" data-name="Livello 1-2"><g class="cls-2"><path class="cls-3" d="M41.8,15.84V15c4.72.21,8.81.21,13.53,0v.84c-4.09.78-5.57,4.44-5.57,11.7V45.8c0,10.08-5.14,17.2-17.12,17.2-11.78,0-18.9-5.22-18.9-15.86,0-3.45.15-7,.15-10.57-.08-4.59-.15-8.46-.36-12.69-.28-5.08-1-7.4-4.37-8V15c6.14.28,15.16.28,21.22,0v.84c-3.6.71-4.58,2.89-4.93,8-.29,5.36-.36,10.29-.36,21.57S29.6,60.11,36.58,60.11,48.14,54.82,48.14,46V27.68C48.14,20.35,46.73,16.9,41.8,15.84ZM28,.05a4.36,4.36,0,0,1,4.59,4.51A4.44,4.44,0,0,1,28,9.08a4.35,4.35,0,0,1-4.51-4.59A4.31,4.31,0,0,1,28,.05ZM42.5.05a4.38,4.38,0,0,1,4.66,4.51A4.5,4.5,0,0,1,42.5,9.08,4.4,4.4,0,0,1,38,4.49,4.32,4.32,0,0,1,42.5.05Z"/></g></g></g></g></svg>